<svg width="512" height="512" xmlns="http://www.w3.org/2000/svg">

 <g>
  <title>background</title>
  <rect fill="none" id="canvas_background" height="402" width="582" y="-1" x="-1"/>
 </g>
 <g>
  <title>Layer 1</title>
  <g stroke="null" id="_x31_94-laravel">
   <g stroke="null" id="svg_1">
    <g stroke="null" id="svg_2">
     <path stroke="null" id="svg_3" fill="#F35045" d="m491.134296,327.012776c-3.149218,-3.6 -47.094266,-58.56731 -54.819136,-67.865746c-7.72174,-9.299479 -11.547132,-7.650783 -16.272002,-6.975653c-4.798957,0.675131 -60.368354,10.048697 -66.814963,11.099479c-6.450783,1.12487 -10.500523,3.674087 -6.52487,9.223305c3.523826,4.949218 40.043482,56.768354 48.144005,68.166268l-145.259493,34.79583l-115.634099,-193.101933c-4.575653,-6.823305 -5.549218,-9.222262 -16.048697,-8.698436c-10.498436,0.449739 -90.663662,7.123827 -96.364184,7.64974c-5.698435,0.449739 -11.997914,3 -6.298435,16.497393c5.699479,13.49948 96.737749,209.6755 99.28801,215.372892c2.549218,5.699479 9.148175,15.000002 24.595829,11.24974c15.823306,-3.824348 70.716529,-18.149219 100.713402,-26.022264c15.822263,28.719655 48.146092,86.9134 54.142962,95.238271c7.950262,11.173566 13.49948,9.300523 25.722785,5.550261c9.598958,-2.925913 149.679668,-53.321745 155.98019,-55.868875c6.298435,-2.626435 10.197914,-4.426435 5.923827,-10.800001c-3.149218,-4.648696 -40.118613,-54.145049 -59.465745,-80.090095c13.274088,-3.523826 60.441398,-16.047654 65.465746,-17.473045c5.925914,-1.498435 6.751305,-4.348174 3.52487,-7.947131l0,0zm-264.115854,53.992701c-1.725913,0.374609 -83.091139,19.873046 -87.440357,20.847654c-4.350261,0.976696 -4.350261,0.525913 -4.875131,-0.974609c-0.523826,-1.500522 -96.737749,-200.000369 -98.08801,-202.475499c-1.349218,-2.476174 -1.275131,-4.425392 0,-4.425392c1.276174,0 76.866791,-6.748175 79.491139,-6.899479c2.699479,-0.149217 2.398957,0.450783 3.374609,2.099478c0,0 106.635142,184.026802 108.436185,187.25428c1.949218,3.224348 0.825391,4.197913 -0.898435,4.573566zm229.471328,43.046613c1.274087,2.023305 2.624348,3.371479 -1.500522,4.798957c-4.050783,1.500522 -137.758971,46.57044 -140.308189,47.692179c-2.625392,1.12487 -4.64974,1.500522 -7.948175,-3.372522c-3.299479,-4.875131 -46.795831,-80.090095 -46.795831,-80.090095l141.584363,-36.821221c3.52487,-1.12487 4.64974,-1.876174 6.898436,1.648696c2.174609,3.6 46.793744,64.118615 48.069918,66.144007zm9.074088,-100.563141c-3.151305,0.674087 -55.194788,13.572523 -55.194788,13.572523l-42.519657,-58.344006c-1.197913,-1.723826 -2.174609,-3.374609 0.825391,-3.750261c2.998957,-0.373565 51.292179,-9.147131 53.468875,-9.597914c2.171478,-0.525913 4.046609,-1.12487 6.748175,2.549218c2.700522,3.674087 39.445569,50.243484 40.869917,52.044527c1.350261,1.72487 -1.048696,2.774609 -4.197913,3.525913l0,0z"/>
    </g>
   </g>
  </g>
  <g id="Layer_1"/>
  <g stroke="null" id="svg_14">
   <g stroke="null" transform="matrix(0.8763321214893589,0,0,0.8763321214893589,-1562.9117424049668,-1575.9043519646311) " id="svg_9">
    <g stroke="null" id="svg_11">
     <polygon stroke="null" id="svg_12" fill="#41B883" points="2215.47998046875,1812.1174964904785 2136.52001953125,1812.1174964904785 2079.02099609375,1903.0894203186035 2029.73583984375,1812.1174964904785 1849.0208740234375,1812.1174964904785 2079.02099609375,2206.0952796936035 2309.018798828125,1812.1174964904785 "/>
     <polygon stroke="null" id="svg_13" fill="#35495E" points="1906.2117919921875,1844.9734535217285 1961.4527587890625,1844.9734535217285 2079.02099609375,2048.4841957092285 2196.48388671875,1844.9734535217285 2251.724853515625,1844.9734535217285 2079.02099609375,2140.8931312561035 1906.2117919921875,1844.9734535217285 "/>
    </g>
   </g>
   <g stroke="null" transform="matrix(0.8763321214893589,0,0,0.8763321214893589,-1562.9117424049668,-1575.9043519646311) " id="svg_8"/>
  </g>
 </g>
</svg>